# xmcd
#
# Track frame offsets:
#	150
#	11453
#	25751
#	37996
#	53987
#	68052
#	80092
#	93973
#	104834
#	118917
#	130900
#	144232
#	158033
#	170489
#	183121
#	196519
#	206321
#	222006
#	233475
#	249952
#	263646
#	275989
#	290740
#	302660
#	318132
#
# Disc length: 4453 seconds
#
# Revision: 0
# Processed by: cddbd v1.5.2PL0 Copyright (c) Steve Scherf et al.
# Submitted via: EasyCDDAExtractor 16.0.6.1
#
DISCID=55116319
DTITLE=Συλλογικός δίσκος - Στις μπουάτ του '60 4
DYEAR=2012
DGENRE=Νέο κύμα
TTITLE0=Κουμιώτη Ρένα - Το θαλασσινό τριφύλλι [Λίνος Κόκοτος-Οδυσσέας Ελύτης]
TTITLE1=Αστεριάδη Πόπη - Η μικρή Νανώ [Νίκος Χουλιαράς]
TTITLE2=Χωματά Καίτη - Το Χριστινάκι [Γιάννης Σπανός-Βασίλης Ρώτας]
TTITLE3=Παππάς Λάκης - Κι ύστερα μού μιλάς [Λάκης Παππάς-Δημήτρης Ιατρόπουλος]
TTITLE4=Ζωγράφος Γιώργος - Ραχήλ αγαπημένη [Λίνος Κόκοτος-Αργύρης Βεργόπουλος]
TTITLE5=Αρλέτα - Αγάπη μου [Μίκης Θεοδωράκης-Γιάννης Θεοδωράκης]
TTITLE6=Πουλόπουλος Γιάννης - Θά 'θελα νά 'χα [Γιάννης Πουλόπουλος]
TTITLE7=Μπιρμπίλη Σούλα - Το γελαστό παιδί [Μ.Θεοδωράκης-Brendan Francis Behan
TTITLE7=, απ. Β.Ρώτας]
TTITLE8=Βιολάρης Μιχάλης - Στα χείλη μας ακόμα το φιλί [Λίνος Κόκοτος-Αργύρης 
TTITLE8=Βεργόπουλος]
TTITLE9=Χωματά Καίτη - Η Ελένη στο μπαλκόνι [Γιάννης Σπανός-Κώστας Κωτούλας]
TTITLE10=Ζωγράφος Γιώργος - Τούτο το πρωΐ (Μονάχοι στο βυθό)[Λίνος Κόκοτος-Αργ
TTITLE10=ύρης Βεργόπουλος]
TTITLE11=Πουλόπουλος Γιάννης - Όσα δε βάζει ο λογισμός [Λίνος Κόκοτος-Άκος Δασ
TTITLE11=καλόπουλος]
TTITLE12=Αστεριάδη Πόπη-Παππάς Λάκης - Δεν είν' τ' άστρο κρασί μας [Λάκης Παππ
TTITLE12=άς-Δημήτρης Ιατρόπουλος]
TTITLE13=Κουμιώτη Ρένα - Ο ταχυδρόμος [Λίνος Κόκοτος-Οδυσσέας Ελύτης]
TTITLE14=Γαλάνη Δήμητρα - Μη μού μιλάς γι' αγάπη [Γιάννης Σπανός-Κώστας σημακό
TTITLE14=πουλος]
TTITLE15=Γκαϊφύλλιας Θανάσης - Μέσ' στους δρόμους τις πλατείες [Θανάσης Γκαϊφύ
TTITLE15=λλιας]
TTITLE16=Δουράκη Μαρία - Μπήκαμε στο τραγούδι [Νίκος Μαμαγκάκης-Γιάννης Ρίτσος
TTITLE16=]
TTITLE17=Αρλέτα - Μόνο μην κλαις [Αρλέτα]
TTITLE18=Αργύρης Γιάννης - Χίλια φεγγάρια [Γιάννης Αργύρης]
TTITLE19=Μαβίλη Αλέκα - Θά 'ρθει ποτέ μιά Κυριακή [Γιάννης Σπανός-Κώστας Κωτού
TTITLE19=λας]
TTITLE20=Αργύρης Γιάννης - Ευχές μου τα όνειρά σου [Γιάννης Αργύρης]
TTITLE21=Μπιρμπίλη Σούλα - Σ' αυτό το ακρογιάλι [Γιάννης Σπανός-Άκος Δασκαλόπο
TTITLE21=υλος]
TTITLE22=Γεωργίου Αλέξης - Λαβωμένο παλληκάρι [Νότης Μαυρουδής-Κώστας Μαίανδρο
TTITLE22=ς]
TTITLE23=Παππάς Λάκης - Παντέρμη Κρήτη [Νίκος Μαμαγκάκης-Παντελής Πρεβελάκης]
TTITLE24=Ντίκος Βαγγέλης - Μαχαίρια [Νίκος Λαβράνος-Διονύσης Τζεφρώνης]
EXTD=
EXTT0=
EXTT1=
EXTT2=
EXTT3=
EXTT4=
EXTT5=
EXTT6=
EXTT7=
EXTT8=
EXTT9=
EXTT10=
EXTT11=
EXTT12=
EXTT13=
EXTT14=
EXTT15=
EXTT16=
EXTT17=
EXTT18=
EXTT19=
EXTT20=
EXTT21=
EXTT22=
EXTT23=
EXTT24=
PLAYORDER=
